<svg width="5" height="5" viewBox="0 0 5 5" fill="none" xmlns="http://www.w3.org/2000/svg">
    <path
        d="M3.76852 0.488607H0.768524C0.635857 0.488607 0.508691 0.541274 0.415024 0.635107C0.321191 0.728607 0.268524 0.85594 0.268524 0.988607V4.15527H4.26852V0.988607C4.26852 0.85594 4.21586 0.728774 4.12202 0.635107C4.02836 0.541274 3.90119 0.488607 3.76852 0.488607ZM0.768524 0.82194H3.76852C3.81269 0.82194 3.85519 0.83944 3.88636 0.870774C3.91769 0.90194 3.93519 0.94444 3.93519 0.988607V1.48861H0.601858V0.988607C0.601858 0.94444 0.619358 0.90194 0.650691 0.870774C0.681858 0.83944 0.724358 0.82194 0.768524 0.82194ZM0.601858 3.82194V1.82194H3.93519V3.82194H0.601858ZM1.10186 2.32194H3.43519V2.65527H1.10186V2.32194ZM1.10186 2.98861H2.76852V3.32194H1.10186V2.98861ZM0.768524 1.15527C0.768524 1.12227 0.778357 1.09011 0.796691 1.06261C0.815024 1.03527 0.841024 1.01394 0.871358 1.00127C0.901858 0.988607 0.935358 0.98544 0.967691 0.991773C1.00002 0.998273 1.02969 1.01411 1.05302 1.03744C1.07636 1.06077 1.09219 1.09044 1.09869 1.12277C1.10502 1.15511 1.10186 1.18861 1.08919 1.21911C1.07652 1.24944 1.05519 1.27561 1.02786 1.29377C1.00019 1.31211 0.968191 1.32194 0.935191 1.32194C0.891024 1.32194 0.848524 1.30444 0.817358 1.27311C0.786024 1.24194 0.768524 1.19944 0.768524 1.15527ZM1.26852 1.15527C1.26852 1.12227 1.27836 1.09011 1.29669 1.06261C1.31502 1.03527 1.34102 1.01394 1.37136 1.00127C1.40186 0.988607 1.43536 0.98544 1.46769 0.991773C1.50002 0.998273 1.52969 1.01411 1.55302 1.03744C1.57636 1.06077 1.59219 1.09044 1.59869 1.12277C1.60502 1.15511 1.60186 1.18861 1.58919 1.21911C1.57652 1.24944 1.55519 1.27561 1.52786 1.29377C1.50019 1.31211 1.46819 1.32194 1.43519 1.32194C1.39102 1.32194 1.34852 1.30444 1.31736 1.27311C1.28602 1.24194 1.26852 1.19944 1.26852 1.15527ZM1.76852 1.15527C1.76852 1.12227 1.77836 1.09011 1.79669 1.06261C1.81502 1.03527 1.84102 1.01394 1.87136 1.00127C1.90186 0.988607 1.93536 0.98544 1.96769 0.991773C2.00002 0.998273 2.02969 1.01411 2.05302 1.03744C2.07636 1.06077 2.09219 1.09044 2.09869 1.12277C2.10502 1.15511 2.10186 1.18861 2.08919 1.21911C2.07652 1.24944 2.05519 1.27561 2.02786 1.29377C2.00036 1.31211 1.96819 1.32194 1.93519 1.32194C1.89102 1.32194 1.84852 1.30444 1.81736 1.27311C1.78602 1.24194 1.76852 1.19944 1.76852 1.15527Z"
        fill="black" fill-opacity="0.8" />
</svg>
