<svg width="7" height="7" viewBox="0 0 7 7" fill="none" xmlns="http://www.w3.org/2000/svg">
<circle cx="3.5" cy="3.5" r="3.5" fill="#00A9C8"/>
<path d="M4.37495 2.49995H4.3115L4.0385 2.14595C4.00325 2.1008 3.95825 2.06405 3.9068 2.0387C3.85535 2.0135 3.7988 2.00015 3.7415 2H3.2585C3.2012 2.00015 3.1445 2.0135 3.0932 2.0387C3.04175 2.06405 2.99675 2.1008 2.9615 2.14595L2.6885 2.49995H2.62505C2.4593 2.50025 2.30045 2.5661 2.1833 2.68325C2.066 2.8004 2.0003 2.95925 2 3.125V4.37495C2.00015 4.5407 2.066 4.69955 2.1833 4.8167C2.30045 4.934 2.4593 4.9997 2.62505 5H4.37495C4.5407 4.99985 4.69955 4.934 4.8167 4.8167C4.93385 4.69955 4.9997 4.5407 5 4.37495V3.125C4.99985 2.95925 4.934 2.8004 4.8167 2.68325C4.69955 2.56625 4.5407 2.50025 4.37495 2.49995ZM3.1595 2.2988C3.1714 2.2835 3.186 2.2715 3.2033 2.2628C3.2207 2.2544 3.2391 2.25015 3.2585 2.25005H3.7415C3.76055 2.25005 3.77945 2.25455 3.79655 2.26295C3.81395 2.27155 3.8286 2.2835 3.8405 2.2988L3.99575 2.49995H3.00425L3.1595 2.2988ZM4.74995 4.37495C4.74995 4.4744 4.7105 4.56995 4.64015 4.64015C4.5698 4.7105 4.4744 4.74995 4.37495 4.74995H2.62505C2.5256 4.74995 2.43005 4.7105 2.35985 4.64015C2.2895 4.5698 2.25005 4.4744 2.25005 4.37495V3.125C2.25005 3.02555 2.2895 2.93015 2.35985 2.8598C2.4302 2.78945 2.5256 2.75 2.62505 2.75H4.37495C4.4744 2.75 4.56995 2.78945 4.64015 2.8598C4.7105 2.9303 4.74995 3.02555 4.74995 3.125V4.37495Z" fill="white"/>
<path d="M3.49998 3.00003C3.35163 3.00003 3.20658 3.04398 3.08328 3.12633C2.95998 3.20883 2.86398 3.32583 2.80713 3.46293C2.75028 3.60003 2.73543 3.75078 2.76438 3.89628C2.79333 4.04178 2.86488 4.17528 2.96958 4.28028C3.07458 4.38528 3.20808 4.45653 3.35358 4.48548C3.49908 4.51443 3.64998 4.49958 3.78708 4.44288C3.92403 4.38603 4.04118 4.28988 4.12353 4.16658C4.20603 4.04328 4.24998 3.89823 4.24998 3.74988C4.24983 3.55113 4.17063 3.36048 4.03008 3.21978C3.88953 3.07923 3.69888 3.00018 3.49998 2.99988M3.49998 4.24983C3.40098 4.24983 3.30438 4.22043 3.22218 4.16553C3.13998 4.11063 3.07593 4.03248 3.03798 3.94113C3.00018 3.84963 2.99028 3.74913 3.00948 3.65223C3.02898 3.55533 3.07653 3.46623 3.14643 3.39618C3.21633 3.32628 3.30543 3.27873 3.40248 3.25938C3.49938 3.24018 3.59988 3.25008 3.69138 3.28788C3.78273 3.32568 3.86088 3.38988 3.91578 3.47208C3.97068 3.55428 3.99993 3.65088 3.99993 3.74973C3.99993 3.88233 3.94743 4.00953 3.85353 4.10328C3.75978 4.19718 3.63258 4.24983 3.49998 4.24983Z" fill="white"/>
</svg>
