<svg width="3" height="5" viewBox="0 0 3 5" xmlns="http://www.w3.org/2000/svg">
    <path
        d="M2.31652 1.08474C2.31652 1.15091 2.29002 1.21457 2.24318 1.26141L0.964516 2.54007C0.92585 2.57874 0.895016 2.62457 0.874183 2.67507C0.853183 2.72574 0.842516 2.78007 0.842516 2.83474C0.842516 2.88941 0.853183 2.94357 0.874183 2.99407C0.895016 3.04474 0.92585 3.09074 0.964516 3.12941L2.24152 4.40641C2.28702 4.45341 2.31218 4.51657 2.31152 4.58224C2.31102 4.64774 2.28485 4.71057 2.23852 4.75674C2.19202 4.80307 2.12935 4.82941 2.06385 4.83007C1.99835 4.83041 1.93518 4.80541 1.88785 4.75991L0.611016 3.48374C0.43935 3.31174 0.34285 3.07857 0.34285 2.83541C0.34285 2.59241 0.43935 2.35924 0.611016 2.18707L1.88968 0.907741C1.92468 0.872741 1.96918 0.848908 2.01768 0.839242C2.06618 0.829575 2.11652 0.834575 2.16218 0.853408C2.20785 0.872408 2.24685 0.904408 2.27435 0.945575C2.30185 0.986741 2.31652 1.03524 2.31652 1.08474Z"
        fill="#797979" />
</svg>
