<svg width="4" height="5" viewBox="0 0 4 5" fill="none" xmlns="http://www.w3.org/2000/svg">
    <path
        d="M0.496185 4.49902H3.49619C3.5792 4.49902 3.6597 4.47411 3.72763 4.42871L3.79111 4.37695C3.86932 4.29874 3.91318 4.19242 3.91318 4.08203V2.44531C3.91322 2.41807 3.91062 2.39086 3.90536 2.36426L3.88095 2.28613C3.87064 2.26112 3.8579 2.23728 3.84286 2.21484L3.79111 2.15137L2.52646 0.886719C2.38559 0.746444 2.19497 0.667969 1.99619 0.667969C1.84696 0.667969 1.70259 0.712456 1.58017 0.793945L1.46591 0.886719L0.201263 2.15137C0.162535 2.18982 0.132376 2.23572 0.11142 2.28613C0.100966 2.31133 0.0922762 2.33758 0.0870056 2.36426L0.0791931 2.44531V4.08203C0.0791931 4.16496 0.104055 4.24552 0.149506 4.31348L0.201263 4.37598L0.20224 4.37695C0.279973 4.45488 0.385768 4.49902 0.496185 4.49902ZM0.496185 4.33203C0.429862 4.33203 0.366182 4.30554 0.319427 4.25879C0.272462 4.21182 0.246185 4.14829 0.246185 4.08203V2.44629C0.246185 2.39643 0.260878 2.34745 0.288177 2.30664L0.319427 2.26953L1.58408 1.00488C1.69365 0.896037 1.84178 0.834961 1.99619 0.834961C2.11204 0.834961 2.22426 0.869457 2.31943 0.932617L2.40829 1.00488L3.67294 2.26953C3.70776 2.30453 3.73155 2.3489 3.7413 2.39648L3.74619 2.44531V4.08203C3.74619 4.1316 3.73144 4.17986 3.70419 4.2207L3.67294 4.25879C3.62619 4.30554 3.56251 4.33203 3.49619 4.33203H2.74619V3.59277C2.74613 3.44367 2.70173 3.29906 2.62021 3.17676L2.52646 3.0625C2.38575 2.92203 2.195 2.84277 1.99619 2.84277C1.84711 2.84277 1.70248 2.88731 1.58017 2.96875L1.46591 3.0625C1.3254 3.20316 1.24625 3.39397 1.24619 3.59277V4.33203H0.496185ZM1.41318 3.59277C1.41325 3.4381 1.47468 3.29006 1.58408 3.18066C1.69338 3.07138 1.84146 3.00977 1.99619 3.00977C2.15091 3.00977 2.29899 3.07138 2.40829 3.18066C2.5177 3.29006 2.57912 3.4381 2.57919 3.59277V4.33203H1.41318V3.59277Z"
        fill="black" stroke="black" stroke-width="0.166667" />
</svg>
