<svg width="4" height="5" viewBox="0 0 4 5" fill="none" xmlns="http://www.w3.org/2000/svg">
    <path
        d="M3.77551 2.78501L3.48384 1.73601C3.38968 1.39801 3.18518 1.10101 2.90301 0.892674C2.62068 0.684174 2.27701 0.576007 1.92634 0.585174C1.57534 0.594341 1.23784 0.720674 0.96701 0.943841C0.696177 1.16684 0.507677 1.47417 0.43151 1.81667L0.20551 2.83151C0.175677 2.96551 0.176344 3.10434 0.20751 3.23817C0.238677 3.37167 0.299344 3.49667 0.385177 3.60384C0.471177 3.71084 0.58001 3.79717 0.703677 3.85667C0.827344 3.91601 0.962844 3.94684 1.10018 3.94701H1.16684C1.21984 4.13034 1.33101 4.29151 1.48368 4.40634C1.63634 4.52101 1.82201 4.58301 2.01301 4.58301C2.20401 4.58301 2.38968 4.52101 2.54234 4.40634C2.69501 4.29151 2.80618 4.13034 2.85901 3.94701H2.89134C3.03268 3.94701 3.17201 3.91434 3.29868 3.85151C3.42534 3.78867 3.53568 3.69751 3.62118 3.58501C3.70668 3.47251 3.76501 3.34167 3.79168 3.20301C3.81834 3.06417 3.81251 2.92117 3.77468 2.78501H3.77551ZM3.22418 3.28234C3.18551 3.33367 3.13534 3.37534 3.07768 3.40401C3.02018 3.43234 2.95668 3.44734 2.89234 3.44701H1.10034C1.03801 3.44701 0.976344 3.43284 0.920177 3.40584C0.863844 3.37901 0.81451 3.33967 0.775344 3.29084C0.736344 3.24234 0.708677 3.18551 0.694677 3.12484C0.68051 3.06401 0.680177 3.00084 0.693677 2.93984L0.919344 1.92317C0.97101 1.68934 1.09968 1.47934 1.28468 1.32684C1.46968 1.17451 1.70018 1.08817 1.93968 1.08201C2.17934 1.07567 2.41418 1.14984 2.60668 1.29251C2.79934 1.43501 2.93868 1.63801 3.00268 1.86901L3.29401 2.91801C3.31151 2.97984 3.31434 3.04517 3.30234 3.10834C3.29018 3.17167 3.26334 3.23117 3.22401 3.28234"
        fill="black" fill-opacity="0.8" />
</svg>
