<svg width="4" height="5" viewBox="0 0 4 5" fill="none" xmlns="http://www.w3.org/2000/svg">
<path d="M2.3295 2.58382C2.52733 2.58382 2.72067 2.52515 2.885 2.41532C3.0495 2.30532 3.17767 2.14915 3.25333 1.96648C3.329 1.78382 3.34883 1.58265 3.31033 1.38865C3.27167 1.19465 3.1765 1.01648 3.03667 0.876651C2.89667 0.736818 2.7185 0.641651 2.52466 0.602984C2.33066 0.564484 2.12966 0.584151 1.94683 0.659984C1.76416 0.735651 1.60783 0.863818 1.498 1.02832C1.388 1.19248 1.3295 1.38582 1.3295 1.58365C1.32983 1.84865 1.43516 2.10298 1.62283 2.29032C1.81 2.47815 2.0645 2.58348 2.3295 2.58382ZM2.3295 0.917318C2.46133 0.917318 2.59017 0.956318 2.69983 1.02965C2.8095 1.10298 2.89483 1.20698 2.9455 1.32882C2.99583 1.45065 3.009 1.58465 2.98333 1.71398C2.95767 1.84332 2.89417 1.96215 2.80083 2.05532C2.70767 2.14865 2.58883 2.21198 2.4595 2.23782C2.33016 2.26348 2.19616 2.25032 2.0745 2.19982C1.9525 2.14948 1.8485 2.06398 1.77516 1.95432C1.70183 1.84448 1.66283 1.71565 1.66283 1.58382C1.66283 1.40698 1.733 1.23748 1.85816 1.11232C1.98316 0.987318 2.15266 0.917151 2.3295 0.917151" fill="black" fill-opacity="0.8"/>
<path d="M2.3295 2.91732C1.93183 2.91782 1.5505 3.07598 1.26933 3.35732C0.988165 3.63848 0.829998 4.01982 0.829498 4.41732C0.829498 4.46165 0.846998 4.50398 0.878332 4.53532C0.909498 4.56648 0.951998 4.58398 0.996165 4.58398C1.04033 4.58398 1.08283 4.56632 1.114 4.53515C1.14533 4.50382 1.16283 4.46148 1.16283 4.41732C1.16283 4.10782 1.28567 3.81115 1.5045 3.59232C1.72333 3.37365 2.02 3.25065 2.3295 3.25065C2.639 3.25065 2.93566 3.37348 3.1545 3.59232C3.37333 3.81132 3.49617 4.10798 3.49617 4.41732C3.49617 4.46148 3.51366 4.50398 3.545 4.53515C3.57616 4.56632 3.61867 4.58398 3.66283 4.58398C3.707 4.58398 3.7495 4.56632 3.78067 4.53515C3.812 4.50382 3.8295 4.46148 3.8295 4.41732C3.829 4.01965 3.67083 3.63832 3.38967 3.35715C3.1085 3.07598 2.72717 2.91782 2.3295 2.91732Z" fill="black" fill-opacity="0.8"/>
</svg>
