<svg width="5" height="5" viewBox="0 0 5 5" fill="none" xmlns="http://www.w3.org/2000/svg">
<path d="M3.16286 1.66146C3.16286 1.72763 3.13636 1.79129 3.08952 1.83813C3.04269 1.88496 2.97902 1.91146 2.91286 1.91146C2.84652 1.91146 2.78286 1.88496 2.73602 1.83813C2.68919 1.79129 2.66269 1.72763 2.66269 1.66146C2.66269 1.59513 2.68919 1.53146 2.73602 1.48463C2.78286 1.43763 2.84652 1.41129 2.91269 1.41129C2.97902 1.41129 3.04269 1.43763 3.08952 1.48463C3.13636 1.53146 3.16286 1.59529 3.16286 1.66146ZM4.91286 3.74463V2.63463C4.91903 2.12079 4.73069 1.62363 4.38552 1.24296C4.04052 0.862459 3.56402 0.626459 3.05219 0.582459C2.76636 0.562459 2.47969 0.604125 2.21152 0.704458C1.94319 0.804958 1.69969 0.961792 1.49719 1.16446C1.29486 1.36713 1.13836 1.61096 1.03836 1.87946C0.938358 2.14779 0.897191 2.43446 0.917691 2.72013C0.991358 3.77929 1.92652 4.57812 3.09336 4.57812H4.07953C4.30036 4.57796 4.51219 4.48996 4.66836 4.33379C4.82469 4.17763 4.91253 3.96563 4.91286 3.74463ZM3.02952 0.915292C3.45719 0.953125 3.85469 1.15146 4.14236 1.47029C4.42986 1.78946 4.58603 2.20529 4.57953 2.63463V3.74479C4.57953 3.87746 4.52669 4.00479 4.43286 4.09846C4.33919 4.19213 4.21203 4.24479 4.07953 4.24479H3.09336C2.08769 4.24479 1.31286 3.59479 1.25036 2.69746C1.23386 2.46896 1.26469 2.23946 1.34102 2.02329C1.41736 1.80729 1.53736 1.60929 1.69369 1.44163C1.84986 1.27396 2.03902 1.14046 2.24936 1.04929C2.45936 0.957958 2.68636 0.911125 2.91552 0.911459C2.95341 0.911681 2.99141 0.912848 3.02952 0.915292ZM3.24619 3.57813V2.57813C3.24619 2.48979 3.21102 2.40496 3.14852 2.34246C3.08602 2.27996 3.00119 2.24479 2.91286 2.24479H2.74619C2.70186 2.24479 2.65952 2.26246 2.62819 2.29363C2.59702 2.32496 2.57952 2.36729 2.57952 2.41146C2.57952 2.45579 2.59702 2.49813 2.62819 2.52929C2.65952 2.56063 2.70186 2.57813 2.74619 2.57813H2.91286V3.57813C2.91286 3.62246 2.93036 3.66479 2.96152 3.69596C2.99286 3.72729 3.03519 3.74479 3.07952 3.74479C3.12369 3.74479 3.16619 3.72729 3.19736 3.69596C3.22852 3.66479 3.24619 3.62246 3.24619 3.57813Z" fill="black" fill-opacity="0.8"/>
</svg>
