<svg width="4" height="4" viewBox="0 0 4 4" fill="none" xmlns="http://www.w3.org/2000/svg">
    <path
        d="M1.79949 1.33358C1.66766 1.33358 1.53882 1.37275 1.42916 1.44608C1.31949 1.51942 1.23416 1.62325 1.18349 1.74525C1.13316 1.86692 1.11999 2.00108 1.14566 2.13025C1.17132 2.25975 1.23482 2.37858 1.32816 2.47175C1.42116 2.56492 1.54016 2.62825 1.66949 2.65425C1.79882 2.67992 1.93282 2.66658 2.05449 2.61625C2.17649 2.56575 2.28049 2.48042 2.35382 2.37075C2.42716 2.26108 2.46616 2.13225 2.46616 2.00025C2.46616 1.82358 2.39599 1.65392 2.27082 1.52892C2.14582 1.40392 1.97632 1.33358 1.79949 1.33358ZM1.79949 2.33358C1.73349 2.33358 1.66916 2.31408 1.61432 2.27742C1.55949 2.24075 1.51682 2.18875 1.49149 2.12792C1.46632 2.06692 1.45982 1.99992 1.47249 1.93525C1.48549 1.87058 1.51716 1.81125 1.56382 1.76458C1.61049 1.71792 1.66982 1.68625 1.73449 1.67342C1.79916 1.66058 1.86616 1.66708 1.92699 1.69242C1.98799 1.71758 2.03999 1.76025 2.07666 1.81508C2.11332 1.87008 2.13282 1.93442 2.13282 2.00025C2.13282 2.08858 2.09782 2.17358 2.03516 2.23608C1.97282 2.29858 1.88782 2.33358 1.79949 2.33358Z"
        fill="black" />
    <path
        d="M3.34837 2.31667L3.27454 2.274C3.30787 2.09267 3.30787 1.907 3.27454 1.72567L3.34854 1.683C3.40537 1.65017 3.4552 1.60633 3.4952 1.55433C3.5352 1.50217 3.5647 1.44267 3.5817 1.37933C3.5987 1.316 3.60304 1.24967 3.59454 1.1845C3.58587 1.1195 3.56454 1.0565 3.53187 0.999666C3.49904 0.942833 3.4552 0.893 3.4032 0.853C3.35104 0.813 3.29154 0.7835 3.2282 0.766333C3.1647 0.7495 3.09854 0.745166 3.0332 0.753666C2.9682 0.762166 2.90537 0.7835 2.84854 0.816333L2.77437 0.859167C2.63437 0.7395 2.4732 0.646667 2.29937 0.5855V0.5C2.29937 0.367333 2.24687 0.240167 2.15304 0.1465C2.0592 0.0526665 1.93204 -1.19209e-07 1.79954 -1.19209e-07C1.66687 -1.19209e-07 1.5397 0.0526665 1.44587 0.1465C1.3522 0.240167 1.29954 0.367333 1.29954 0.5V0.5855C1.1257 0.647 0.964871 0.74 0.824871 0.859833L0.750371 0.816667C0.635371 0.750333 0.498704 0.7325 0.370704 0.766667C0.242537 0.801167 0.133204 0.885 0.0670372 1C0.000703886 1.115 -0.0172961 1.2515 0.0170372 1.37967C0.0515372 1.50783 0.135371 1.617 0.250371 1.68333L0.324371 1.726C0.291037 1.90733 0.291037 2.093 0.324371 2.27433L0.250371 2.317C0.135371 2.38333 0.0515372 2.4925 0.0170372 2.62067C-0.0172961 2.749 0.000703886 2.88533 0.0670372 3.00033C0.133204 3.11533 0.242537 3.19917 0.370704 3.23367C0.498871 3.26783 0.635371 3.25 0.750371 3.18367L0.824537 3.14083C0.964537 3.2605 1.1257 3.35333 1.29954 3.4145V3.5C1.29954 3.63267 1.3522 3.75983 1.44587 3.8535C1.5397 3.94733 1.66687 4 1.79954 4C1.93204 4 2.0592 3.94733 2.15304 3.8535C2.24687 3.75983 2.29954 3.63267 2.29954 3.5V3.4145C2.4732 3.353 2.6342 3.26 2.7742 3.14017L2.8487 3.18317C2.9637 3.2495 3.1002 3.26733 3.2282 3.23317C3.35654 3.19867 3.4657 3.11483 3.53204 2.99983C3.59837 2.88483 3.6162 2.74833 3.58187 2.62017C3.54754 2.492 3.46354 2.38283 3.34854 2.3165L3.34837 2.31667ZM2.92387 1.68733C2.9802 1.89183 2.9802 2.10783 2.92387 2.31233C2.91387 2.348 2.9162 2.38567 2.9302 2.42C2.9442 2.45417 2.9692 2.48267 3.0012 2.50117L3.18187 2.6055C3.2202 2.62767 3.24804 2.664 3.25954 2.70667C3.27104 2.7495 3.26504 2.795 3.24287 2.83333C3.22087 2.87167 3.18454 2.8995 3.1417 2.911C3.09904 2.92233 3.05337 2.9165 3.01504 2.89433L2.8342 2.78967C2.8022 2.77117 2.76487 2.76383 2.7282 2.76867C2.69154 2.77367 2.65754 2.79083 2.63154 2.81717C2.4832 2.96867 2.29654 3.07667 2.0912 3.12967C2.05537 3.13883 2.02354 3.15967 2.00087 3.189C1.9782 3.21817 1.96587 3.25417 1.96587 3.29117V3.5C1.96587 3.54417 1.94837 3.58667 1.9172 3.61783C1.88587 3.64917 1.84354 3.66667 1.79937 3.66667C1.75504 3.66667 1.7127 3.64917 1.68154 3.61783C1.6502 3.58667 1.6327 3.54417 1.6327 3.5V3.29133C1.6327 3.25433 1.62037 3.21833 1.5977 3.18917C1.57504 3.15983 1.54337 3.13917 1.50754 3.12983C1.3022 3.0765 1.11537 2.96833 0.967204 2.81667C0.941204 2.79033 0.907204 2.77333 0.870537 2.76833C0.833871 2.76333 0.796704 2.77067 0.764704 2.78917L0.584037 2.89367C0.565037 2.90483 0.544037 2.912 0.522371 2.915C0.500371 2.918 0.478593 2.91667 0.457037 2.911C0.435593 2.90533 0.416037 2.89578 0.398371 2.88233C0.380815 2.86889 0.366482 2.8525 0.355371 2.83317C0.344371 2.81417 0.337204 2.79317 0.334371 2.7715C0.331482 2.74939 0.332982 2.72761 0.338871 2.70617C0.344648 2.68483 0.354371 2.66539 0.368037 2.64783C0.381593 2.63017 0.398037 2.61589 0.417371 2.605L0.598037 2.50067C0.630037 2.48233 0.654871 2.45367 0.668871 2.4195C0.682871 2.38533 0.685204 2.3475 0.675371 2.31183C0.618871 2.10733 0.618871 1.89133 0.675371 1.68683C0.685037 1.65133 0.682704 1.6135 0.668704 1.5795C0.654537 1.5455 0.629704 1.517 0.597871 1.49867L0.417204 1.39433C0.378871 1.37217 0.350871 1.33583 0.339371 1.29317C0.328037 1.25033 0.334037 1.20483 0.356037 1.1665C0.378204 1.12817 0.414537 1.10033 0.457371 1.08883C0.500037 1.0775 0.545537 1.08333 0.583871 1.1055L0.764871 1.21017C0.796704 1.22883 0.833871 1.23617 0.870537 1.23133C0.907204 1.22633 0.941204 1.20967 0.967204 1.18333C1.11554 1.03183 1.30237 0.923833 1.5077 0.870833C1.54354 0.861667 1.57537 0.840667 1.59804 0.811167C1.6207 0.781833 1.63304 0.745833 1.63287 0.708667V0.5C1.63287 0.455833 1.65037 0.413333 1.6817 0.382166C1.71287 0.350833 1.7552 0.333333 1.79954 0.333333C1.8437 0.333333 1.8862 0.350833 1.91737 0.382166C1.94854 0.413333 1.9662 0.455833 1.9662 0.5V0.708667C1.9662 0.745667 1.97837 0.781667 2.0012 0.810833C2.0237 0.840167 2.05554 0.860833 2.0912 0.870167C2.2967 0.9235 2.48354 1.03167 2.63187 1.18333C2.6577 1.20967 2.6917 1.22667 2.72837 1.23167C2.76504 1.23667 2.80237 1.22933 2.83437 1.21083L3.01504 1.10633C3.03387 1.09517 3.05504 1.088 3.0767 1.085C3.09837 1.082 3.1207 1.08333 3.14187 1.089C3.16332 1.09467 3.18287 1.10422 3.20054 1.11767C3.21809 1.13111 3.23243 1.1475 3.24354 1.16683C3.25465 1.18606 3.26165 1.20661 3.26454 1.2285C3.26732 1.25061 3.26581 1.27239 3.26004 1.29383C3.25426 1.31517 3.24459 1.33461 3.23104 1.35217C3.21737 1.36983 3.20093 1.38411 3.1817 1.395L3.00104 1.49933C2.9692 1.51767 2.94437 1.54617 2.93037 1.58033C2.91637 1.61433 2.91404 1.652 2.9237 1.6875L2.92387 1.68733Z"
        fill="black" />
</svg>
