<svg width="4" height="5" viewBox="0 0 4 5" fill="none" xmlns="http://www.w3.org/2000/svg">
<path d="M2.41284 2.24983C2.61068 2.24983 2.80401 2.19117 2.96834 2.08133C3.13284 1.97133 3.26101 1.81517 3.33668 1.6325C3.41234 1.44983 3.43218 1.24867 3.39368 1.05467C3.35501 0.860667 3.25984 0.6825 3.12001 0.542667C2.98001 0.402833 2.80184 0.307667 2.60801 0.269C2.41401 0.2305 2.21301 0.250167 2.03018 0.326C1.84751 0.401667 1.69118 0.529833 1.58134 0.694333C1.47134 0.8585 1.41284 1.05183 1.41284 1.24967C1.41318 1.51467 1.51851 1.769 1.70618 1.95633C1.89334 2.14417 2.14784 2.2495 2.41284 2.24983ZM2.41284 0.583333C2.54468 0.583333 2.67351 0.622333 2.78318 0.695667C2.89284 0.769 2.97818 0.873 3.02884 0.994833C3.07918 1.11667 3.09234 1.25067 3.06668 1.38C3.04101 1.50933 2.97751 1.62817 2.88418 1.72133C2.79101 1.81467 2.67218 1.878 2.54284 1.90383C2.41351 1.9295 2.27951 1.91633 2.15784 1.86583C2.03584 1.8155 1.93184 1.73 1.85851 1.62033C1.78518 1.5105 1.74618 1.38167 1.74618 1.24983C1.74618 1.073 1.81634 0.9035 1.94151 0.778333C2.06651 0.653333 2.23601 0.583167 2.41284 0.583167" fill="black" fill-opacity="0.8"/>
<path d="M2.41284 2.58333C2.01518 2.58383 1.63384 2.742 1.35268 3.02333C1.07151 3.3045 0.913342 3.68583 0.912842 4.08333C0.912842 4.12767 0.930342 4.17 0.961675 4.20133C0.992842 4.2325 1.03534 4.25 1.07951 4.25C1.12368 4.25 1.16618 4.23233 1.19734 4.20117C1.22868 4.16983 1.24618 4.1275 1.24618 4.08333C1.24618 3.77383 1.36901 3.47717 1.58784 3.25833C1.80668 3.03967 2.10334 2.91667 2.41284 2.91667C2.72234 2.91667 3.01901 3.0395 3.23784 3.25833C3.45668 3.47733 3.57951 3.774 3.57951 4.08333C3.57951 4.1275 3.59701 4.17 3.62834 4.20117C3.65951 4.23233 3.70201 4.25 3.74618 4.25C3.79034 4.25 3.83284 4.23233 3.86401 4.20117C3.89534 4.16983 3.91284 4.1275 3.91284 4.08333C3.91234 3.68567 3.75418 3.30433 3.47301 3.02317C3.19184 2.742 2.81051 2.58383 2.41284 2.58333Z" fill="black" fill-opacity="0.8"/>
</svg>
