<svg width="4" height="4" viewBox="0 0 4 4" fill="none" xmlns="http://www.w3.org/2000/svg">
<path d="M1.8505 2.50025C1.8015 2.50025 1.75433 2.48258 1.71967 2.45142C1.685 2.42008 1.6655 2.37775 1.6655 2.33358V1.00025C1.6655 0.956083 1.685 0.913583 1.71967 0.882417C1.75433 0.851083 1.80133 0.833583 1.8505 0.833583C1.89967 0.833583 1.94667 0.851083 1.98133 0.882417C2.016 0.913583 2.0355 0.956083 2.0355 1.00025V2.33358C2.0355 2.37775 2.016 2.42025 1.98133 2.45142C1.94667 2.48258 1.89967 2.50025 1.8505 2.50025ZM1.99717 3.96025C2.397 3.81558 3.701 3.24675 3.701 2.00742V1.14558C3.70133 0.970417 3.64017 0.799583 3.52617 0.657583C3.41233 0.515583 3.25167 0.409583 3.067 0.354583L1.90867 0.00875016C1.871 -0.00291651 1.83 -0.00291651 1.79217 0.00875016L0.633834 0.354583C0.449334 0.409583 0.288667 0.515583 0.174834 0.657583C0.0610003 0.79975 -0.000166327 0.970417 3.39696e-07 1.14558V2.00725C3.39696e-07 3.10125 1.29633 3.77025 1.69383 3.94908C1.74417 3.97075 1.79639 3.98786 1.8505 4.00042C1.90083 3.99108 1.94972 3.97758 1.99717 3.96025ZM2.9505 0.671083C3.06117 0.704083 3.15767 0.76775 3.22583 0.852917C3.29417 0.93825 3.33083 1.04058 3.33083 1.14575V2.00742C3.33083 3.03808 2.2045 3.52608 1.85917 3.65108C1.50983 3.49375 0.370167 2.91025 0.370167 2.00758V1.14575C0.370167 1.04075 0.406834 0.93825 0.475167 0.852917C0.5435 0.767917 0.639834 0.704083 0.7505 0.671083L1.8505 0.34275L2.9505 0.671083ZM1.8505 2.83375C1.81383 2.83375 1.77817 2.84342 1.74767 2.86175C1.71733 2.88008 1.6935 2.90608 1.6795 2.93675C1.6655 2.96708 1.66183 3.00058 1.669 3.03292C1.67617 3.06525 1.69383 3.09492 1.71967 3.11825C1.7455 3.14158 1.7785 3.15742 1.8145 3.16392C1.85033 3.17025 1.8875 3.16692 1.92133 3.15442C1.95517 3.14175 1.984 3.12042 2.00433 3.09292C2.02467 3.06558 2.0355 3.03342 2.0355 3.00042C2.0355 2.95625 2.016 2.91375 1.98133 2.88258C1.94667 2.85125 1.89967 2.83375 1.8505 2.83375Z" fill="black" fill-opacity="0.8"/>
</svg>
