<svg width="5" height="5" viewBox="0 0 5 5" fill="none" xmlns="http://www.w3.org/2000/svg">
<path d="M3.07953 0.750708C3.07953 0.706541 3.0972 0.664041 3.12853 0.632874C3.1597 0.601541 3.2022 0.584041 3.24636 0.584041C3.6882 0.584541 4.11186 0.760208 4.42436 1.07271C4.7367 1.38521 4.91253 1.80871 4.91303 2.25071C4.91303 2.29487 4.89553 2.33737 4.8642 2.36854C4.83286 2.39971 4.79053 2.41737 4.74636 2.41737C4.7022 2.41737 4.6597 2.39971 4.62853 2.36854C4.5972 2.33721 4.5797 2.29487 4.5797 2.25071C4.57936 1.89721 4.4387 1.55821 4.1887 1.30837C3.9387 1.05837 3.59986 0.917708 3.24636 0.917375C3.2022 0.917375 3.1597 0.899708 3.12853 0.868541C3.0972 0.837208 3.0797 0.794874 3.0797 0.750708M3.24636 1.58404C3.42336 1.58404 3.59303 1.65421 3.71803 1.77921C3.84303 1.90421 3.91303 2.07387 3.91303 2.25071C3.91303 2.29487 3.9307 2.33737 3.96203 2.36854C3.9932 2.39971 4.0357 2.41737 4.07986 2.41737C4.12403 2.41737 4.16653 2.39971 4.1977 2.36854C4.22903 2.33721 4.24653 2.29487 4.24653 2.25071C4.2462 1.98554 4.14086 1.73137 3.9532 1.54387C3.76586 1.35637 3.51153 1.25087 3.24653 1.25054C3.20236 1.25054 3.15986 1.26821 3.1287 1.29954C3.09736 1.33071 3.07986 1.37321 3.07986 1.41737C3.07986 1.46154 3.09736 1.50404 3.1287 1.53521C3.15986 1.56637 3.2022 1.58404 3.24636 1.58404ZM4.7622 3.37387C4.85886 3.47054 4.91303 3.60187 4.91303 3.73871C4.91303 3.87537 4.8587 4.00671 4.7622 4.10354L4.61053 4.27837C3.24553 5.58504 -0.0761366 2.26437 1.21053 0.895041L1.4022 0.728374C1.4992 0.634374 1.6292 0.582541 1.7642 0.583708C1.8992 0.585041 2.0282 0.639375 2.12336 0.735041C2.12836 0.740041 2.43736 1.14137 2.43736 1.14137C2.52903 1.23754 2.58003 1.36554 2.57986 1.49837C2.57953 1.63137 2.5282 1.75904 2.4362 1.85504L2.24286 2.09771C2.34953 2.35721 2.5067 2.59304 2.70486 2.79171C2.9032 2.99037 3.1387 3.14787 3.39803 3.25504L3.6422 3.06104C3.7382 2.96904 3.86586 2.91771 3.99886 2.91771C4.13153 2.91737 4.25936 2.96837 4.35553 3.06004C4.35553 3.06004 4.7567 3.36871 4.76186 3.37387M4.53253 3.61621C4.53253 3.61621 4.1337 3.30937 4.12853 3.30421C4.0942 3.27004 4.04786 3.25087 3.99936 3.25087C3.95103 3.25087 3.9047 3.27004 3.87036 3.30421C3.86586 3.30887 3.5297 3.57671 3.5297 3.57671C3.50703 3.59471 3.48003 3.60654 3.45136 3.61087C3.42286 3.61537 3.39353 3.61237 3.36636 3.60204C3.03053 3.47704 2.72553 3.28104 2.47186 3.02787C2.2182 2.77454 2.02186 2.46971 1.89636 2.13404C1.8852 2.10654 1.88153 2.07671 1.88586 2.04737C1.89003 2.01804 1.90203 1.99054 1.92053 1.96737C1.92053 1.96737 2.18836 1.63104 2.19286 1.62671C2.22686 1.59237 2.24603 1.54587 2.24603 1.49754C2.24603 1.44921 2.22686 1.40287 2.1927 1.36854C2.1877 1.36354 1.88086 0.964374 1.88086 0.964374C1.84586 0.933041 1.80053 0.916375 1.7537 0.917708C1.70703 0.918708 1.66236 0.937708 1.6292 0.970874L1.43753 1.13754C0.497197 2.26804 3.3757 4.98704 4.36653 4.05071L4.5182 3.87571C4.55386 3.84271 4.57536 3.79721 4.57786 3.74871C4.58053 3.70037 4.56436 3.65287 4.53253 3.61621Z" fill="black" fill-opacity="0.8"/>
</svg>
