<svg width="4" height="5" viewBox="0 0 4 5" fill="none" xmlns="http://www.w3.org/2000/svg">
<path d="M3.41285 1.654V1.41667C3.41285 1.10717 3.29001 0.8105 3.07118 0.591666C2.85235 0.372833 2.55568 0.25 2.24618 0.25C1.93668 0.25 1.64001 0.372833 1.42118 0.591666C1.20235 0.8105 1.07951 1.10717 1.07951 1.41667V1.654C0.93118 1.71883 0.80468 1.8255 0.715847 1.96083C0.62718 2.09633 0.57968 2.25467 0.579514 2.41667V3.41667C0.579847 3.63767 0.66768 3.84933 0.823847 4.00567C0.98018 4.16167 1.19185 4.24967 1.41285 4.25H3.07951C3.30051 4.24967 3.51218 4.16183 3.66851 4.00567C3.82451 3.84933 3.91251 3.63767 3.91285 3.41667V2.41667C3.91268 2.25467 3.86518 2.09633 3.77651 1.96083C3.68768 1.8255 3.56135 1.71883 3.41285 1.654ZM1.41285 1.41667C1.41285 1.19567 1.50068 0.983667 1.65685 0.827333C1.81318 0.671167 2.02518 0.583333 2.24618 0.583333C2.46718 0.583333 2.67918 0.671167 2.83551 0.827333C2.99168 0.983667 3.07951 1.19567 3.07951 1.41667V1.58333H1.41285V1.41667ZM3.57951 3.41667C3.57951 3.54933 3.52685 3.6765 3.43301 3.77017C3.33951 3.864 3.21218 3.91667 3.07951 3.91667H1.41285C1.28018 3.91667 1.15301 3.864 1.05935 3.77017C0.965514 3.67667 0.912847 3.54933 0.912847 3.41667V2.41667C0.912847 2.284 0.965514 2.15683 1.05935 2.06317C1.15285 1.96933 1.28018 1.91667 1.41285 1.91667H3.07951C3.21218 1.91667 3.33935 1.96933 3.43301 2.06317C3.52685 2.15683 3.57951 2.284 3.57951 2.41667V3.41667Z" fill="black" fill-opacity="0.8"/>
</svg>
