<svg width="4" height="5" viewBox="0 0 4 5" fill="none" xmlns="http://www.w3.org/2000/svg">
<path d="M3.34884 1.41882C3.16934 1.30182 3.03968 1.11448 2.99934 0.895985C2.99045 0.848762 2.9859 0.800318 2.98567 0.750651H2.41284L2.41184 3.04732C2.40217 3.30448 2.19051 3.51098 1.93101 3.51098C1.85034 3.51098 1.77434 3.49082 1.70751 3.45548C1.55417 3.37482 1.44917 3.21415 1.44917 3.02915C1.44917 2.76348 1.66534 2.54748 1.93084 2.54748C1.98051 2.54748 2.02817 2.55565 2.07317 2.56965V1.98465C2.02651 1.97832 1.97917 1.97432 1.93101 1.97432C1.34934 1.97432 0.876175 2.44765 0.876175 3.02932C0.876175 3.38598 1.05451 3.70182 1.32651 3.89282C1.49784 4.01315 1.70617 4.08398 1.93101 4.08398C2.51267 4.08398 2.98567 3.61082 2.98567 3.02915V1.86465C3.21067 2.02598 3.48584 2.12098 3.78301 2.12098V1.54798C3.62301 1.54798 3.47384 1.50032 3.34884 1.41882Z" fill="#00A9C8"/>
</svg>
