<svg width="4" height="4" viewBox="0 0 4 4" fill="none" xmlns="http://www.w3.org/2000/svg">
<path d="M1.6225 0.965807C0.799165 0.965807 0.129165 1.61131 0.128665 2.40447C0.128665 2.65814 0.197498 2.90564 0.328165 3.12364L0.116165 3.86914L0.907999 3.66914C1.12833 3.78414 1.37333 3.84447 1.62183 3.84414H1.6225C2.44583 3.84414 3.11583 3.19881 3.11617 2.40564C3.11633 2.02147 2.96117 1.65981 2.679 1.38797C2.397 1.11597 2.022 0.965974 1.62233 0.965974M1.62233 3.60147H1.62183C1.399 3.60147 1.1805 3.54381 0.989832 3.43481L0.944332 3.40881L0.474665 3.52747L0.599999 3.08614L0.570499 3.04114C0.446499 2.85197 0.380499 2.63064 0.380665 2.40447C0.380999 1.74531 0.937998 1.20914 1.62283 1.20914C1.95433 1.20914 2.26617 1.33364 2.5005 1.55964C2.735 1.78564 2.864 2.08614 2.86383 2.40564C2.8635 3.06497 2.30667 3.60147 1.62233 3.60147ZM2.30317 2.70581C2.26583 2.68781 2.08233 2.60081 2.04817 2.58881C2.01383 2.57681 1.989 2.57064 1.96417 2.60664C1.93933 2.64264 1.86767 2.72364 1.846 2.74764C1.82433 2.77164 1.80233 2.77447 1.765 2.75664C1.72767 2.73864 1.60733 2.70064 1.465 2.57814C1.354 2.48297 1.279 2.36531 1.25733 2.32914C1.23567 2.29331 1.255 2.27381 1.27367 2.25581C1.29033 2.23997 1.311 2.21397 1.3295 2.19297C1.34817 2.17197 1.3545 2.15697 1.367 2.13297C1.37933 2.10914 1.37317 2.08797 1.36367 2.07014C1.35433 2.05197 1.27983 1.87514 1.24867 1.80314C1.21833 1.73314 1.18767 1.74247 1.16467 1.74147C1.143 1.74031 1.118 1.74014 1.093 1.74014C1.06833 1.74014 1.02783 1.74914 0.993499 1.78514C0.959332 1.82114 0.862999 1.90797 0.862999 2.08481C0.862999 2.26181 0.996665 2.43281 1.01533 2.45681C1.034 2.48064 1.27867 2.84381 1.653 2.99964C1.742 3.03647 1.8115 3.05864 1.86583 3.07531C1.95517 3.10281 2.03667 3.09864 2.10083 3.08964C2.1725 3.07931 2.32167 3.00264 2.35267 2.91881C2.38383 2.83481 2.38383 2.76281 2.3745 2.74781C2.3655 2.73281 2.3405 2.72381 2.30317 2.70581Z" fill="#00A9C8"/>
</svg>
